<svg width="56" height="18" viewBox="0 0 56 18" fill="none" xmlns="http://www.w3.org/2000/svg">
<path d="M29.5134 4.38993C29.5134 5.0196 29.006 5.52663 28.3763 5.52663C27.7467 5.52663 27.2396 5.0196 27.2396 4.38993C27.2396 3.76025 27.7294 3.25322 28.3763 3.25322C29.0238 3.27069 29.5134 3.77789 29.5134 4.38993ZM24.8261 6.68116V6.96106C24.8261 6.96106 24.2841 6.26114 23.1298 6.26114C21.2236 6.26114 19.7368 7.71286 19.7368 9.72402C19.7368 11.7179 21.2062 13.1869 23.1298 13.1869C24.3016 13.1869 24.8261 12.4699 24.8261 12.4699V12.7671C24.8261 12.907 24.9313 13.0117 25.071 13.0117H26.4875V6.43551H25.071C24.9313 6.43603 24.8261 6.55869 24.8261 6.68116ZM24.8261 10.8958C24.564 11.2808 24.0392 11.6131 23.4097 11.6131C22.2904 11.6131 21.4333 10.9135 21.4333 9.72402C21.4333 8.53473 22.2904 7.83516 23.4097 7.83516C24.0219 7.83516 24.5815 8.18495 24.8261 8.5522V10.8958ZM27.537 6.43603H29.2158V13.0122H27.537V6.43603ZM52.6166 6.26097C51.4623 6.26097 50.92 6.96088 50.92 6.96088V3.27069H49.2411V13.0122H50.6579C50.7978 13.0122 50.9025 12.8897 50.9025 12.7672V12.47C50.9025 12.47 51.4448 13.1871 52.5988 13.1871C54.5053 13.1871 55.9918 11.7184 55.9918 9.72455C55.9918 7.73068 54.5053 6.26097 52.6166 6.26097ZM52.3367 11.5954C51.6894 11.5954 51.1824 11.2635 50.92 10.8784V8.53473C51.1824 8.18494 51.742 7.81769 52.3367 7.81769C53.456 7.81769 54.313 8.51726 54.313 9.70655C54.313 10.8958 53.4561 11.5954 52.3367 11.5954ZM48.3668 9.11217V13.0297H46.6876V9.30435C46.6876 8.22024 46.3379 7.78275 45.394 7.78275C44.887 7.78275 44.3622 8.04517 44.0293 8.43007V13.0124H42.3508V6.43621H43.6796C43.8195 6.43621 43.9245 6.55869 43.9245 6.68116V6.96106C44.4142 6.45368 45.0612 6.26114 45.7082 6.26114C46.4429 6.26114 47.0551 6.47132 47.5448 6.89099C48.1392 7.38073 48.3668 8.01023 48.3668 9.11217ZM38.2752 6.26097C37.1212 6.26097 36.5789 6.96088 36.5789 6.96088V3.27069H34.9001V13.0122H36.3165C36.4564 13.0122 36.5614 12.8897 36.5614 12.7672V12.47C36.5614 12.47 37.1037 13.1871 38.2578 13.1871C40.1643 13.1871 41.6507 11.7184 41.6507 9.72455C41.6682 7.73051 40.1817 6.26097 38.2752 6.26097ZM37.9953 11.5954C37.3484 11.5954 36.8413 11.2635 36.5789 10.8784V8.53473C36.8413 8.18494 37.401 7.81769 37.9953 7.81769C39.1149 7.81769 39.9717 8.51726 39.9717 9.70655C39.9717 10.8958 39.1149 11.5954 37.9953 11.5954ZM33.4483 6.26097C33.9554 6.26097 34.2178 6.34867 34.2178 6.34867V7.90505C34.2178 7.90505 32.8187 7.43279 31.9444 8.4299V13.0295H30.2652V6.43603H31.682C31.8219 6.43603 31.9266 6.55851 31.9266 6.68099V6.96088C32.2417 6.59345 32.9238 6.26097 33.4483 6.26097ZM16.0118 12.4175C15.9245 12.2076 15.8369 11.9803 15.7496 11.7878C15.6095 11.4731 15.4695 11.1756 15.3474 10.8958L15.3299 10.8784C14.123 8.25483 12.829 5.59669 11.4647 2.9735L11.4123 2.86831C11.2688 2.59619 11.1289 2.32215 10.9928 2.04628C10.8177 1.73126 10.643 1.3993 10.3631 1.08428C9.80347 0.384718 8.9989 -0.000183105 8.14209 -0.000183105C7.26746 -0.000183105 6.48054 0.38472 5.90363 1.04917C5.6412 1.36383 5.44867 1.69615 5.27395 2.01116C5.13745 2.28686 4.99761 2.56089 4.85446 2.8332L4.80187 2.93838C3.45515 5.56157 2.14356 8.21989 0.936794 10.8433L0.91915 10.878C0.796849 11.1583 0.656725 11.4555 0.516777 11.77C0.429419 11.9625 0.342061 12.1723 0.254703 12.3996C0.0272223 13.0466 -0.0428422 13.6588 0.0448653 14.2887C0.237228 15.6004 1.11151 16.7019 2.31845 17.1919C2.77323 17.3845 3.24549 17.4718 3.73505 17.4718C3.87499 17.4718 4.04972 17.4544 4.18984 17.4367C4.7671 17.3668 5.36166 17.1746 5.93892 16.8423C6.65596 16.44 7.33805 15.863 8.1075 15.0235C8.87695 15.863 9.57651 16.44 10.2761 16.8423C10.8535 17.1746 11.4479 17.3668 12.025 17.4367C12.1649 17.4545 12.34 17.4718 12.4799 17.4718C12.9697 17.4718 13.4592 17.3845 13.8964 17.1919C15.1208 16.7019 15.9776 15.583 16.1701 14.2887C16.309 13.6766 16.2391 13.0648 16.0118 12.4175ZM8.12445 13.3269C7.17993 12.1376 6.56772 11.0183 6.35806 10.0742C6.2707 9.67178 6.25306 9.322 6.30565 9.00716C6.34042 8.72727 6.4456 8.48231 6.58554 8.27248C6.91785 7.80057 7.47747 7.50303 8.12462 7.50303C8.77195 7.50303 9.34903 7.78292 9.66387 8.27248C9.80382 8.48231 9.90865 8.72744 9.94394 9.00716C9.99618 9.32218 9.97871 9.68926 9.89135 10.0742C9.68082 11.0009 9.06861 12.1203 8.12445 13.3269ZM15.1023 14.1489C14.98 15.0583 14.3678 15.8456 13.5109 16.1954C13.0913 16.3701 12.6363 16.4227 12.1819 16.3701C11.7447 16.3175 11.3073 16.1775 10.8528 15.9155C10.2231 15.5653 9.59364 15.0235 8.85896 14.2188C10.0131 12.8024 10.7127 11.5079 10.9751 10.3539C11.0976 9.81156 11.1152 9.322 11.0625 8.86704C10.9928 8.4299 10.8352 8.02752 10.5904 7.67774C10.0479 6.89047 9.13832 6.43603 8.12427 6.43603C7.11022 6.43603 6.20064 6.90829 5.6585 7.67774C5.41372 8.02752 5.25613 8.4299 5.18624 8.86704C5.11635 9.322 5.13365 9.82903 5.2736 10.3539C5.53585 11.5079 6.25289 12.8197 7.38959 14.2363C6.67256 15.0408 6.0254 15.5832 5.39573 15.9329C4.94094 16.1954 4.50398 16.3353 4.06684 16.3875C3.59475 16.4401 3.13979 16.3701 2.7376 16.2128C1.88079 15.863 1.26858 15.0758 1.14628 14.1664C1.09386 13.7292 1.12863 13.2921 1.3037 12.8024C1.35594 12.6273 1.44365 12.4526 1.531 12.2427C1.65348 11.9628 1.79308 11.6653 1.9332 11.3681L1.95085 11.3333C3.15744 8.72727 4.45156 6.06895 5.79828 3.4807L5.85069 3.37552C5.99081 3.11345 6.13076 2.83355 6.27053 2.57112C6.41048 2.29123 6.56772 2.0288 6.76026 1.80132C7.12751 1.382 7.61707 1.15434 8.15939 1.15434C8.70171 1.15434 9.19127 1.382 9.55852 1.80132C9.75106 2.02933 9.9083 2.29175 10.0482 2.57112C10.1884 2.83355 10.3283 3.11345 10.4679 3.37552L10.5205 3.4807C11.8467 6.0797 13.1236 8.70355 14.3506 11.3508V11.3683C14.4908 11.6485 14.6131 11.963 14.753 12.2433C14.8404 12.4528 14.9279 12.6275 14.9803 12.8025C15.1199 13.2568 15.1723 13.6943 15.1023 14.1489Z" fill="#FF5A5F"/>
</svg>
