<svg width="54" height="11" viewBox="0 0 54 11" fill="none" xmlns="http://www.w3.org/2000/svg">
<path d="M28.3764 5.29843C27.9213 5.29843 27.5932 5.44767 27.2605 5.59972V9.04016C27.5792 9.07052 27.7618 9.07052 28.0641 9.07052C29.1565 9.07052 29.3063 8.57024 29.3063 7.87175V6.22857C29.3063 5.71273 29.1351 5.29843 28.3764 5.29843ZM21.1215 5.11067C20.3636 5.11067 20.1906 5.52675 20.1906 6.04208V6.33163H22.0514V6.04208C22.0514 5.52675 21.8784 5.11067 21.1215 5.11067ZM7.06738 8.69168C7.06738 9.09935 7.25973 9.31109 7.68424 9.31109C8.13961 9.31109 8.40927 9.16262 8.74168 9.01006V8.19395H7.74598C7.27453 8.19395 7.06738 8.28171 7.06738 8.69168ZM35.4336 5.29843C34.6744 5.29843 34.4113 5.71273 34.4113 6.22857V8.11104C34.4113 8.62816 34.6744 9.04373 35.4336 9.04373C36.1908 9.04373 36.4558 8.62816 36.4558 8.11104V6.22857C36.4556 5.71273 36.1905 5.29843 35.4336 5.29843ZM3.34682 10.8025H1.1151V5.40073H0V3.53943H1.11535V2.42153C1.11535 0.902843 1.74471 0 3.53356 0H5.02291V1.86181H4.092C3.39555 1.86181 3.34962 2.12202 3.34962 2.6075L3.34682 3.53917H5.03311L4.83591 5.40047H3.34682V10.8025ZM10.9739 10.8165H9.11389L9.03353 10.3461C8.18426 10.8165 7.42632 10.8928 6.9263 10.8928C5.56221 10.8928 4.83616 9.98153 4.83616 8.72127C4.83616 7.23448 5.68339 6.70384 7.19901 6.70384H8.74168V6.3824C8.74168 5.62344 8.65469 5.40073 7.48755 5.40073H5.57931L5.76579 3.53943H7.85159C10.4124 3.53943 10.9739 4.34839 10.9739 6.39745V10.8165ZM17.2989 5.53721C16.1415 5.33874 15.8091 5.29511 15.2521 5.29511C14.2518 5.29511 13.9495 5.51578 13.9495 6.36531V7.97226C13.9495 8.82178 14.2518 9.04348 15.2521 9.04348C15.8091 9.04348 16.1415 8.99909 17.2989 8.79985V10.6155C16.2851 10.8428 15.6246 10.9025 15.0664 10.9025C12.6704 10.9025 11.7181 9.64248 11.7181 7.82226V6.51838C11.7181 4.69662 12.6704 3.43432 15.0664 3.43432C15.6246 3.43432 16.2851 3.49427 17.2989 3.7226V5.53721ZM24.2829 7.82226H20.1904V7.97226C20.1904 8.82178 20.4929 9.04348 21.493 9.04348C22.392 9.04348 22.9407 8.99909 24.0961 8.79985V10.6155C22.9818 10.8428 22.4012 10.9025 21.308 10.9025C18.9117 10.9025 17.9589 9.64248 17.9589 7.82226V6.33138C17.9589 4.73871 18.6658 3.43432 21.1213 3.43432C23.5767 3.43432 24.2829 4.72366 24.2829 6.33138V7.82226ZM31.5375 7.8567C31.5375 9.61595 31.0347 10.8992 27.9886 10.8992C26.8886 10.8992 26.2434 10.8025 25.0293 10.6157V0.559207L27.2603 0.186998V3.70474C27.7424 3.52565 28.3664 3.43458 28.9343 3.43458C31.1655 3.43458 31.5372 4.43487 31.5372 6.04234L31.5375 7.8567ZM38.6891 7.89496C38.6891 9.41263 38.0625 10.8846 35.441 10.8846C32.8182 10.8846 32.1799 9.41263 32.1799 7.89496V6.4296C32.1799 4.91117 32.8182 3.43891 35.441 3.43891C38.0625 3.43891 38.6891 4.91117 38.6891 6.4296V7.89496ZM45.8358 7.89496C45.8358 9.41263 45.2085 10.8846 42.5874 10.8846C39.9646 10.8846 39.3263 9.41263 39.3263 7.89496V6.4296C39.3263 4.91117 39.9646 3.43891 42.5874 3.43891C45.2085 3.43891 45.8358 4.91117 45.8358 6.4296V7.89496ZM53.17 10.8025H50.7518L48.7066 7.38831V10.8025H46.4748V0.558951L48.7066 0.186742V6.78114L50.7518 3.53943H53.17L50.9373 7.07707L53.17 10.8025ZM42.5798 5.29843C41.8218 5.29843 41.5588 5.71273 41.5588 6.22857V8.11104C41.5588 8.62816 41.8218 9.04373 42.5798 9.04373C43.3367 9.04373 43.6046 8.62816 43.6046 8.11104V6.22857C43.6046 5.71273 43.3367 5.29843 42.5798 5.29843Z" fill="#3B5998"/>
</svg>
