<svg width="180" height="54" viewBox="0 0 180 54" fill="none" xmlns="http://www.w3.org/2000/svg">
<path d="M173.333 0H6.66667C2.98477 0 0 2.98477 0 6.66667V46.6667C0 50.3486 2.98477 53.3334 6.66667 53.3334H173.333C177.015 53.3334 180 50.3486 180 46.6667V6.66667C180 2.98477 177.015 0 173.333 0Z" fill="black"/>
<path d="M173.333 1.06664C174.818 1.06836 176.241 1.65895 177.291 2.70884C178.341 3.75874 178.932 5.18219 178.933 6.66691V46.6669C178.932 48.1516 178.341 49.5751 177.291 50.625C176.241 51.6749 174.818 52.2654 173.333 52.2672H6.66667C5.18193 52.2655 3.75851 51.6749 2.70866 50.625C1.65882 49.5751 1.06831 48.1516 1.06667 46.6669V6.66691C1.06828 5.18217 1.65879 3.7587 2.70864 2.7088C3.75848 1.65891 5.18193 1.06833 6.66667 1.06664H173.333ZM173.333 0.000244141H6.66667C4.90015 0.00541494 3.20746 0.709454 1.95833 1.95858C0.70921 3.2077 0.0051708 4.90039 0 6.66691L0 46.6669C0.0051708 48.4334 0.70921 50.1261 1.95833 51.3753C3.20746 52.6244 4.90015 53.3284 6.66667 53.3336H173.333C175.1 53.3284 176.793 52.6244 178.042 51.3753C179.291 50.1261 179.995 48.4334 180 46.6669V6.66691C179.995 4.90039 179.291 3.2077 178.042 1.95858C176.793 0.709454 175.1 0.00541494 173.333 0.000244141Z" fill="#A6A6A6"/>
<path d="M63.2245 13.6583C63.2488 14.1475 63.1732 14.6366 63.0024 15.0957C62.8315 15.5548 62.5691 15.9744 62.2309 16.3288C61.852 16.7218 61.3943 17.0304 60.8879 17.2344C60.3815 17.4383 59.8377 17.5331 59.2921 17.5124C58.7431 17.5173 58.1986 17.4124 57.6907 17.2039C57.1828 16.9954 56.7216 16.6874 56.3344 16.2982C55.9472 15.9089 55.6417 15.4461 55.4359 14.9371C55.2301 14.4281 55.1282 13.883 55.136 13.334C55.1282 12.785 55.2302 12.2399 55.4361 11.7309C55.6419 11.2219 55.9473 10.7591 56.3345 10.3698C56.7217 9.98044 57.1828 9.67242 57.6907 9.4638C58.1986 9.25518 58.7431 9.15017 59.2921 9.15494C59.8567 9.15323 60.4155 9.26737 60.9341 9.49027C61.4158 9.68553 61.8446 9.9918 62.1855 10.3841L61.4823 11.0879C61.2143 10.7725 60.8775 10.5229 60.4977 10.3583C60.118 10.1937 59.7055 10.1186 59.2921 10.1387C58.876 10.1365 58.4638 10.2184 58.08 10.3793C57.6963 10.5403 57.349 10.777 57.059 11.0754C56.7689 11.3737 56.542 11.7275 56.3919 12.1156C56.2418 12.5037 56.1716 12.9181 56.1855 13.334C56.1756 13.9569 56.3508 14.5688 56.6891 15.092C57.0274 15.6151 57.5134 16.0261 58.0855 16.2727C58.6576 16.5193 59.2901 16.5904 59.9027 16.4771C60.5153 16.3638 61.0805 16.0711 61.5265 15.6361C61.9371 15.1938 62.175 14.6187 62.1971 14.0156H59.2921V13.0547H63.1685C63.2052 13.2538 63.2239 13.4558 63.2245 13.6583Z" fill="white" stroke="white" stroke-width="0.2" stroke-miterlimit="10"/>
<path d="M69.3703 10.3173H65.7271V12.8537H69.0123V13.8148H65.7271V16.3512H69.3703V17.3342H64.6997V9.33423H69.3703V10.3173Z" fill="white" stroke="white" stroke-width="0.2" stroke-miterlimit="10"/>
<path d="M73.705 17.3342H72.6763V10.3173H70.4419V9.33423H75.9394V10.3173H73.705V17.3342Z" fill="white" stroke="white" stroke-width="0.2" stroke-miterlimit="10"/>
<path d="M79.9172 17.3342V9.33423H80.9445V17.3342H79.9172Z" fill="white" stroke="white" stroke-width="0.2" stroke-miterlimit="10"/>
<path d="M85.5044 17.3342H84.4757V10.3173H82.2415V9.33423H87.7388V10.3173H85.5044V17.3342Z" fill="white" stroke="white" stroke-width="0.2" stroke-miterlimit="10"/>
<path d="M98.1458 16.3002C97.3671 17.0766 96.3124 17.5125 95.2128 17.5125C94.1133 17.5125 93.0586 17.0766 92.2799 16.3002C91.8947 15.9101 91.5918 15.4464 91.3894 14.9369C91.187 14.4273 91.0891 13.8822 91.1015 13.3341C91.0891 12.7859 91.187 12.2409 91.3894 11.7313C91.5918 11.2218 91.8947 10.7581 92.2799 10.368C92.6648 9.98298 93.1218 9.67769 93.6248 9.46956C94.1278 9.26143 94.6669 9.15455 95.2113 9.15503C95.7557 9.15551 96.2946 9.26335 96.7972 9.47238C97.2999 9.6814 97.7564 9.9875 98.1406 10.3732C98.526 10.7623 98.8295 11.2249 99.0328 11.7335C99.2361 12.2422 99.3352 12.7864 99.3242 13.3341C99.3363 13.8822 99.2382 14.4272 99.0358 14.9367C98.8333 15.4462 98.5307 15.9099 98.1458 16.3002ZM93.039 15.6304C93.6157 16.2061 94.3973 16.5294 95.2122 16.5294C96.0271 16.5294 96.8086 16.2061 97.3854 15.6304C97.6811 15.3276 97.9124 14.968 98.0652 14.5733C98.2181 14.1786 98.2893 13.7571 98.2747 13.3341C98.2893 12.9111 98.2181 12.4895 98.0652 12.0949C97.9124 11.7002 97.6811 11.3406 97.3854 11.0378C96.8086 10.4621 96.0271 10.1387 95.2122 10.1387C94.3973 10.1387 93.6157 10.4621 93.039 11.0378C92.7436 11.3408 92.5127 11.7005 92.3601 12.0951C92.2075 12.4898 92.1363 12.9112 92.151 13.3341C92.1363 13.757 92.2075 14.1784 92.3601 14.573C92.5127 14.9677 92.7436 15.3273 93.039 15.6304Z" fill="white" stroke="white" stroke-width="0.2" stroke-miterlimit="10"/>
<path d="M100.767 17.3342V9.33423H102.018L105.906 15.5576H105.95L105.906 14.0158V9.33423H106.935V17.3342H105.862L101.794 10.8094H101.75L101.794 12.3512V17.3342H100.767Z" fill="white" stroke="white" stroke-width="0.2" stroke-miterlimit="10"/>
<path d="M90.8477 29.0024C89.727 29.0067 88.6327 29.3429 87.7029 29.9686C86.7732 30.5943 86.0497 31.4815 85.6238 32.5181C85.1979 33.5546 85.0886 34.6942 85.3099 35.7928C85.5311 36.8915 86.0729 37.8999 86.8669 38.6908C87.6608 39.4818 88.6713 40.0197 89.7708 40.2368C90.8702 40.4539 92.0094 40.3403 93.0443 39.9104C94.0793 39.4806 94.9637 38.7537 95.5859 37.8216C96.208 36.8895 96.5401 35.7939 96.5401 34.6732C96.5511 33.9237 96.4112 33.1795 96.1288 32.4851C95.8463 31.7907 95.4271 31.1602 94.896 30.6311C94.3649 30.1021 93.7328 29.6852 93.0373 29.4054C92.3418 29.1256 91.5972 28.9886 90.8477 29.0024ZM90.8477 38.1102C90.1575 38.1594 89.4685 37.9997 88.8704 37.6518C88.2723 37.3039 87.7927 36.7841 87.4942 36.1599C87.1957 35.5357 87.092 34.836 87.1967 34.1521C87.3013 33.4681 87.6095 32.8315 88.081 32.3252C88.5526 31.8188 89.1656 31.4661 89.8404 31.3131C90.5152 31.16 91.2204 31.2137 91.8643 31.467C92.5081 31.7204 93.0608 32.1617 93.4503 32.7336C93.8399 33.3054 94.0482 33.9813 94.0482 34.6732C94.0691 35.1104 94.0024 35.5472 93.852 35.9582C93.7015 36.3691 93.4704 36.7458 93.1721 37.0661C92.8739 37.3864 92.5146 37.6437 92.1154 37.823C91.7162 38.0023 91.2852 38.1 90.8477 38.1102ZM78.4298 29.0024C77.3091 29.0067 76.2148 29.3428 75.285 29.9685C74.3553 30.5942 73.6318 31.4814 73.2058 32.518C72.7799 33.5546 72.6706 34.6941 72.8918 35.7928C73.1131 36.8914 73.6549 37.8998 74.4488 38.6908C75.2428 39.4818 76.2532 40.0197 77.3527 40.2368C78.4522 40.4539 79.5913 40.3403 80.6263 39.9105C81.6613 39.4806 82.5457 38.7537 83.1679 37.8216C83.79 36.8895 84.1221 35.7939 84.1221 34.6732C84.1331 33.9237 83.9932 33.1796 83.7108 32.4852C83.4283 31.7908 83.0091 31.1603 82.478 30.6312C81.947 30.1021 81.3149 29.6853 80.6194 29.4055C79.924 29.1256 79.1793 28.9886 78.4298 29.0024ZM78.4298 38.1102C77.7396 38.1594 77.0506 37.9997 76.4525 37.6518C75.8544 37.3039 75.3749 36.7841 75.0763 36.1599C74.7778 35.5357 74.6741 34.836 74.7788 34.1521C74.8835 33.4681 75.1916 32.8315 75.6632 32.3252C76.1347 31.8188 76.7478 31.4661 77.4225 31.3131C78.0973 31.16 78.8025 31.2137 79.4464 31.467C80.0903 31.7204 80.6429 32.1617 81.0325 32.7336C81.422 33.3054 81.6303 33.9813 81.6303 34.6732C81.6513 35.1104 81.5846 35.5472 81.4341 35.9582C81.2837 36.3691 81.0525 36.7458 80.7543 37.0661C80.4561 37.3864 80.0968 37.6437 79.6976 37.823C79.2983 38.0023 78.8673 38.1 78.4298 38.1102ZM63.6581 30.7424V33.1482H69.415C69.3319 34.2766 68.8702 35.3438 68.1046 36.177C67.5277 36.765 66.8339 37.2256 66.068 37.5289C65.3021 37.8323 64.4812 37.9718 63.6581 37.9383C61.9754 37.9155 60.3693 37.2311 59.1874 36.0331C58.0056 34.8351 57.3429 33.2199 57.3429 31.5371C57.3429 29.8543 58.0056 28.2391 59.1874 27.0411C60.3693 25.8431 61.9754 25.1587 63.6581 25.1359C65.2743 25.1148 66.8337 25.7323 67.9973 26.8543L69.6942 25.1574C68.9003 24.3714 67.9574 23.7518 66.9209 23.335C65.8844 22.9182 64.7751 22.7125 63.6581 22.73C62.4907 22.713 61.3316 22.9283 60.2482 23.3633C59.1648 23.7982 58.1787 24.4442 57.3471 25.2637C56.5156 26.0832 55.8553 27.0599 55.4046 28.1368C54.9539 29.2138 54.7218 30.3696 54.7218 31.5371C54.7218 32.7046 54.9539 33.8604 55.4046 34.9374C55.8553 36.0143 56.5156 36.991 57.3471 37.8105C58.1787 38.63 59.1648 39.276 60.2482 39.7109C61.3316 40.1459 62.4907 40.3612 63.6581 40.3442C64.7987 40.3915 65.9363 40.1957 66.9955 39.7698C68.0547 39.3439 69.0112 38.6976 69.8015 37.8739C71.2047 36.3422 71.9527 34.3222 71.8853 32.246C71.8908 31.7418 71.8475 31.2383 71.7562 30.7424H63.6581ZM124.069 32.6111C123.728 31.5839 123.08 30.6866 122.211 30.041C121.342 29.3953 120.296 29.0327 119.214 29.0024C118.486 29.007 117.766 29.1592 117.098 29.4499C116.429 29.7406 115.827 30.1638 115.327 30.6939C114.827 31.2239 114.44 31.8499 114.189 32.5338C113.938 33.2178 113.828 33.9456 113.866 34.6732C113.85 35.4188 113.984 36.16 114.26 36.8527C114.536 37.5453 114.95 38.1751 115.475 38.7044C116 39.2337 116.627 39.6517 117.317 39.9335C118.008 40.2152 118.748 40.3549 119.494 40.3442C120.428 40.3493 121.349 40.1224 122.174 39.6837C122.998 39.2451 123.701 38.6084 124.219 37.831L122.286 36.5422C121.997 37.0231 121.587 37.4206 121.097 37.6955C120.608 37.9703 120.055 38.1133 119.494 38.1102C118.916 38.1323 118.345 37.9802 117.855 37.6738C117.364 37.3674 116.978 36.9207 116.744 36.3918L124.327 33.2556L124.069 32.6111ZM116.336 34.5015C116.309 34.0888 116.365 33.6748 116.501 33.2839C116.636 32.8931 116.848 32.5331 117.124 32.225C117.4 31.917 117.734 31.6671 118.108 31.49C118.482 31.3129 118.887 31.2121 119.3 31.1935C119.731 31.1652 120.16 31.2642 120.534 31.4781C120.908 31.692 121.211 32.0114 121.406 32.3964L116.336 34.5015ZM110.171 40.0004H112.663V23.3316H110.171V40.0004ZM106.09 30.2698H106.004C105.625 29.8582 105.163 29.5322 104.648 29.3137C104.133 29.0951 103.577 28.989 103.018 29.0024C101.556 29.0647 100.174 29.6893 99.1614 30.746C98.1488 31.8027 97.5834 33.2097 97.5834 34.6733C97.5834 36.1369 98.1488 37.5439 99.1614 38.6006C100.174 39.6573 101.556 40.2819 103.018 40.3442C103.58 40.3591 104.137 40.2515 104.653 40.029C105.169 39.8064 105.63 39.4742 106.004 39.0554H106.09V39.8716C106.09 42.0412 104.93 43.2011 103.061 43.2011C102.438 43.1862 101.834 42.9862 101.325 42.6266C100.816 42.267 100.426 41.7641 100.204 41.1819L98.0346 42.0842C98.4435 43.0797 99.1404 43.9305 100.036 44.5275C100.931 45.1245 101.985 45.4405 103.061 45.4351C105.982 45.4351 108.453 43.7167 108.453 39.5279V29.346H106.09V30.2698ZM103.233 38.1102C102.372 38.0371 101.569 37.6434 100.985 37.0069C100.4 36.3705 100.075 35.5376 100.075 34.6733C100.075 33.809 100.4 32.9761 100.985 32.3397C101.569 31.7032 102.372 31.3095 103.233 31.2364C103.661 31.2574 104.081 31.3643 104.468 31.551C104.854 31.7376 105.199 32.0001 105.481 32.3229C105.764 32.6456 105.979 33.0219 106.113 33.4294C106.247 33.8369 106.297 34.2672 106.262 34.6947C106.295 35.1195 106.243 35.5468 106.107 35.9508C105.972 36.3549 105.756 36.7275 105.474 37.0464C105.191 37.3652 104.847 37.6238 104.462 37.8066C104.077 37.9893 103.659 38.0926 103.233 38.1102ZM135.741 23.3319H129.779V40.0004H132.267V33.6852H135.741C136.445 33.7238 137.149 33.6185 137.81 33.3758C138.472 33.1331 139.077 32.758 139.589 32.2735C140.101 31.789 140.508 31.2053 140.787 30.558C141.066 29.9106 141.209 29.2133 141.209 28.5086C141.209 27.8038 141.066 27.1065 140.787 26.4592C140.508 25.8118 140.101 25.2281 139.589 24.7436C139.077 24.2591 138.472 23.8841 137.81 23.6413C137.149 23.3986 136.445 23.2933 135.741 23.3319ZM135.805 31.3655H132.267V25.6518H135.805C136.185 25.6439 136.563 25.712 136.917 25.852C137.27 25.992 137.592 26.2012 137.864 26.4673C138.136 26.7333 138.351 27.0509 138.499 27.4015C138.646 27.752 138.722 28.1284 138.722 28.5086C138.722 28.8889 138.646 29.2653 138.499 29.6158C138.351 29.9663 138.136 30.2839 137.864 30.55C137.592 30.8161 137.27 31.0252 136.917 31.1653C136.563 31.3053 136.185 31.3734 135.805 31.3655ZM151.181 28.9718C150.273 28.9188 149.369 29.132 148.581 29.5853C147.792 30.0386 147.153 30.7123 146.742 31.5236L148.951 32.4458C149.17 32.0431 149.501 31.713 149.905 31.4958C150.309 31.2787 150.767 31.184 151.224 31.2234C151.855 31.1618 152.485 31.3529 152.975 31.7549C153.465 32.1568 153.776 32.7368 153.84 33.3678V33.5394C153.041 33.1149 152.15 32.894 151.245 32.896C148.865 32.896 146.442 34.2042 146.442 36.6488C146.465 37.164 146.591 37.6694 146.813 38.1348C147.035 38.6002 147.349 39.0163 147.735 39.3583C148.121 39.7003 148.572 39.9613 149.06 40.1258C149.549 40.2902 150.066 40.3549 150.58 40.3158C151.207 40.3526 151.832 40.2209 152.39 39.9343C152.948 39.6476 153.419 39.2166 153.754 38.686H153.84V39.9727H156.242V33.5823C156.242 30.623 154.033 28.9718 151.181 28.9718ZM150.881 38.107C150.066 38.107 148.929 37.6996 148.929 36.6916C148.929 35.4051 150.344 34.9118 151.567 34.9118C152.361 34.8906 153.146 35.0832 153.84 35.4694C153.749 36.1923 153.398 36.8578 152.854 37.3427C152.31 37.8275 151.609 38.099 150.881 38.107ZM164.991 29.3363L162.139 36.563H162.053L159.094 29.3363H156.413L160.852 39.4366L158.322 45.055H160.916L167.757 29.3363H164.991ZM142.582 40.0004H145.069V23.3319H142.582V40.0004Z" fill="white"/>
<path d="M13.9138 10.0492C13.4765 10.572 13.2558 11.2421 13.2967 11.9224V41.4105C13.2557 42.0908 13.4764 42.761 13.9138 43.2837L14.0124 43.3799L30.5311 26.8613V26.4716L14.0124 9.95239L13.9138 10.0492Z" fill="url(#paint0_linear_323_288)"/>
<path d="M36.0369 32.3715L30.5311 26.863V26.4733L36.0383 20.9661L36.1624 21.0369L42.6861 24.7437C44.5496 25.8023 44.5496 27.5346 42.6861 28.5939L36.1624 32.3007L36.0369 32.3715Z" fill="url(#paint1_linear_323_288)"/>
<path d="M36.1624 32.2998L30.531 26.668L13.9137 43.2852C14.2934 43.6201 14.7783 43.8116 15.2843 43.8265C15.7904 43.8415 16.2857 43.6789 16.6845 43.367L36.1624 32.2998Z" fill="url(#paint2_linear_323_288)"/>
<path d="M36.1624 21.0366L16.6845 9.96945C16.2857 9.65757 15.7904 9.49503 15.2843 9.50998C14.7783 9.52493 14.2934 9.71644 13.9137 10.0513L30.531 26.6686L36.1624 21.0366Z" fill="url(#paint3_linear_323_288)"/>
<path opacity="0.2" d="M36.0382 32.176L16.6845 43.1724C16.3011 43.4643 15.8331 43.6236 15.3512 43.6262C14.8693 43.6287 14.3996 43.4745 14.013 43.1867L13.9137 43.286L14.0124 43.3822L14.013 43.3815C14.3995 43.6694 14.8692 43.8238 15.3512 43.8212C15.8331 43.8186 16.3011 43.6593 16.6845 43.3672L36.1624 32.3L36.0382 32.176Z" fill="black"/>
<path opacity="0.12" d="M13.9138 43.091C13.4766 42.5682 13.2558 41.898 13.2967 41.2178V41.4126C13.2558 42.0928 13.4766 42.763 13.9138 43.2858L14.0131 43.1864L13.9138 43.091Z" fill="black"/>
<path opacity="0.12" d="M42.6861 28.3984L36.0383 32.176L36.1624 32.3L42.6861 28.5932C43.0699 28.4267 43.402 28.1603 43.6478 27.8218C43.8936 27.4833 44.0442 27.0851 44.0839 26.6687C44.0014 27.0458 43.8321 27.3985 43.5895 27.6988C43.3468 27.9991 43.0375 28.2386 42.6861 28.3984Z" fill="black"/>
<path opacity="0.25" d="M16.6845 10.1639L42.6861 24.9372C43.0377 25.097 43.3471 25.3366 43.5897 25.637C43.8324 25.9374 44.0016 26.2903 44.0839 26.6676C44.0445 26.251 43.894 25.8526 43.6482 25.514C43.4023 25.1753 43.0701 24.9089 42.6861 24.7424L16.6845 9.96909C14.8211 8.91029 13.2967 9.78975 13.2967 11.9242V12.119C13.2967 9.98469 14.8211 9.10522 16.6845 10.1639Z" fill="white"/>
<defs>
<linearGradient id="paint0_linear_323_288" x1="29.0662" y1="11.6115" x2="6.68968" y2="33.988" gradientUnits="userSpaceOnUse">
<stop stop-color="#00A0FF"/>
<stop offset="0.00657" stop-color="#00A1FF"/>
<stop offset="0.2601" stop-color="#00BEFF"/>
<stop offset="0.5122" stop-color="#00D2FF"/>
<stop offset="0.7604" stop-color="#00DFFF"/>
<stop offset="1" stop-color="#00E3FF"/>
</linearGradient>
<linearGradient id="paint1_linear_323_288" x1="45.1124" y1="26.6688" x2="12.8498" y2="26.6688" gradientUnits="userSpaceOnUse">
<stop stop-color="#FFE000"/>
<stop offset="0.4087" stop-color="#FFBD00"/>
<stop offset="0.7754" stop-color="#FFA500"/>
<stop offset="1" stop-color="#FF9C00"/>
</linearGradient>
<linearGradient id="paint2_linear_323_288" x1="33.1024" y1="29.7281" x2="2.75806" y2="60.0725" gradientUnits="userSpaceOnUse">
<stop stop-color="#FF3A44"/>
<stop offset="1" stop-color="#C31162"/>
</linearGradient>
<linearGradient id="paint3_linear_323_288" x1="9.72962" y1="0.235551" x2="23.2796" y2="13.7856" gradientUnits="userSpaceOnUse">
<stop stop-color="#32A071"/>
<stop offset="0.0685" stop-color="#2DA771"/>
<stop offset="0.4762" stop-color="#15CF74"/>
<stop offset="0.8009" stop-color="#06E775"/>
<stop offset="1" stop-color="#00F076"/>
</linearGradient>
</defs>
</svg>
